<svg xmlns="http://www.w3.org/2000/svg" xmlns:xlink="http://www.w3.org/1999/xlink" version="1.2" width="50.05mm" height="14.33mm" viewBox="8.4758 -0.0000 28.4811 8.1523">
<style type="text/css">
<![CDATA[
tspan { white-space: pre; }
]]>
</style>
<g transform="translate(8.5358, 8.1023)">
<line stroke-linejoin="round" stroke-linecap="round" stroke-width="0.1000" stroke="currentColor" x1="0.0500" y1="0" x2="28.3711" y2="0"/>
</g>
<g transform="translate(8.5358, 6.6023)">
<line stroke-linejoin="round" stroke-linecap="round" stroke-width="0.1000" stroke="currentColor" x1="0.0500" y1="0" x2="28.3711" y2="0"/>
</g>
<g transform="translate(8.5358, 5.1023)">
<line stroke-linejoin="round" stroke-linecap="round" stroke-width="0.1000" stroke="currentColor" x1="0.0500" y1="0" x2="28.3711" y2="0"/>
</g>
<g transform="translate(8.5358, 3.6023)">
<line stroke-linejoin="round" stroke-linecap="round" stroke-width="0.1000" stroke="currentColor" x1="0.0500" y1="0" x2="28.3711" y2="0"/>
</g>
<g transform="translate(8.5358, 2.1023)">
<line stroke-linejoin="round" stroke-linecap="round" stroke-width="0.1000" stroke="currentColor" x1="0.0500" y1="0" x2="28.3711" y2="0"/>
</g>
<g transform="translate(8.5358, 0.6023)">
<line stroke-linejoin="round" stroke-linecap="round" stroke-width="0.1000" stroke="currentColor" x1="0.0500" y1="0" x2="28.3711" y2="0"/>
</g>
<g transform="translate(36.7670, 4.3523)">
<rect x="0.0000" y="-3.7500" width="0.1900" height="7.5000" ry="0.0000" fill="currentColor"/>
</g>
<g transform="translate(24.9961, 4.3523)">
<rect x="0.0000" y="-3.7500" width="0.1900" height="7.5000" ry="0.0000" fill="currentColor"/>
</g>
<g color="rgb(100.0000%, 100.0000%, 100.0000%)">
<g transform="translate(26.1075, 0.6023)">
<rect x="0.0888" y="-0.6019" width="0.8877" height="1.2039" ry="0.0000" fill="currentColor"/>
</g>
</g>
<g transform="translate(26.1963, 1.1804)">
<text font-family="serif" font-weight="bold" font-size="1.7461" text-anchor="start" fill="currentColor">
<tspan>0</tspan>
</text>
</g>
<g color="rgb(100.0000%, 100.0000%, 100.0000%)">
<g transform="translate(14.3358, 2.1023)">
<rect x="0.0888" y="-0.5900" width="0.8877" height="1.1800" ry="0.0000" fill="currentColor"/>
</g>
</g>
<g transform="translate(14.4246, 2.6923)">
<text font-family="serif" font-weight="bold" font-size="1.7461" text-anchor="start" fill="currentColor">
<tspan>1</tspan>
</text>
</g>
<g transform="translate(9.1358, 4.3523)">
<path transform="scale(0.0040, -0.0040)" d="M267 -425c0 -24 -23 -27 -43 -27c-45 0 -84 31 -84 75c0 82 118 130 234 130c104 0 215 -22 215 -103c0 -51 -31 -86 -69 -110c58 -11 102 -36 102 -91c0 -90 -94 -158 -179 -158c-41 0 -80 15 -108 52c-2 2 -3 5 -3 8c0 12 16 25 28 25c4 0 8 -1 10 -4
c11 -15 27 -21 44 -21c43 0 95 40 95 93c0 46 -49 63 -100 63h-1c-6 0 -8 8 -8 16c0 11 5 24 18 24c36 0 69 39 69 77c0 45 -36 68 -80 76c-11 -62 -31 -173 -40 -220c-20 -102 -84 -202 -159 -202c-44 0 -68 34 -96 53c-3 2 -4 5 -4 9c0 11 12 26 24 26c3 0 5 0 7 -2
c20 -13 36 -35 65 -35c65 0 89 99 89 195v8c0 35 9 109 18 163c-39 -13 -70 -40 -70 -70c0 -15 8 -28 19 -34c4 -3 7 -9 7 -16zM301 -83c-43 -41 -114 -105 -173 -105c-33 0 -52 21 -78 32c-3 1 -5 5 -5 9c0 11 11 28 25 28c2 0 5 -1 7 -2c16 -7 30 -18 50 -18
c34 0 65 27 91 54c100 102 175 219 214 336c9 27 33 37 57 37c29 0 57 -15 57 -31c0 -2 -1 -4 -2 -6c-4 -116 -9 -233 -16 -350v-9c0 -16 3 -30 21 -30c16 0 35 13 53 19l2 1c5 0 9 -8 9 -17c0 -8 -3 -16 -12 -19c-29 -9 -54 -34 -87 -34c-32 0 -45 29 -53 58
c-16 61 -26 125 -31 191c-27 -35 -56 -68 -87 -101c11 -20 33 -33 64 -33c4 0 8 1 12 1c5 0 8 -7 8 -15c0 -25 -34 -29 -56 -29c-32 0 -56 12 -70 33zM288 540c0 -23 -23 -24 -42 -24c-49 0 -91 36 -91 84c0 95 125 120 232 120c49 0 119 -41 171 -41c38 0 77 15 110 41
c3 2 6 3 9 3c11 0 23 -11 23 -19c0 -2 -1 -3 -2 -4c-40 -45 -95 -71 -148 -71c-15 0 -31 2 -44 6c-9 -59 -26 -151 -35 -193c-22 -96 -88 -185 -163 -185c-52 0 -81 42 -115 64c-3 2 -4 5 -4 9c0 11 12 26 23 26c2 0 5 -1 7 -2c23 -15 43 -46 75 -46c56 0 82 77 85 150
c2 45 13 150 22 208c-12 3 -31 5 -32 5c-51 0 -113 -21 -113 -70c0 -18 10 -36 24 -43c5 -3 8 -10 8 -18z" fill="currentColor"/>
</g>
<g transform="translate(8.4758, 4.3523)">
<rect x="0.0000" y="-3.8000" width="0.1600" height="7.6000" ry="0.0500" fill="currentColor"/>
</g>
<g color="rgb(100.0000%, 100.0000%, 100.0000%)">
<g transform="translate(28.7821, 0.6023)">
<rect x="0.0888" y="-0.5900" width="0.8877" height="1.1800" ry="0.0000" fill="currentColor"/>
</g>
</g>
<g transform="translate(28.8708, 1.1923)">
<text font-family="serif" font-weight="bold" font-size="1.7461" text-anchor="start" fill="currentColor">
<tspan>1</tspan>
</text>
</g>
<g color="rgb(100.0000%, 100.0000%, 100.0000%)">
<g transform="translate(31.4566, 0.6023)">
<rect x="0.0888" y="-0.5900" width="0.8877" height="1.1800" ry="0.0000" fill="currentColor"/>
</g>
</g>
<g transform="translate(31.5454, 1.1923)">
<text font-family="serif" font-weight="bold" font-size="1.7461" text-anchor="start" fill="currentColor">
<tspan>2</tspan>
</text>
</g>
<g color="rgb(100.0000%, 100.0000%, 100.0000%)">
<g transform="translate(34.1311, 0.6023)">
<rect x="0.0888" y="-0.6023" width="0.8877" height="1.2047" ry="0.0000" fill="currentColor"/>
</g>
</g>
<g transform="translate(34.2199, 1.1800)">
<text font-family="serif" font-weight="bold" font-size="1.7461" text-anchor="start" fill="currentColor">
<tspan>3</tspan>
</text>
</g>
<g color="rgb(100.0000%, 100.0000%, 100.0000%)">
<g transform="translate(22.3595, 2.1023)">
<rect x="0.0888" y="-0.5900" width="0.8877" height="1.1800" ry="0.0000" fill="currentColor"/>
</g>
</g>
<g transform="translate(22.4482, 2.6923)">
<text font-family="serif" font-weight="bold" font-size="1.7461" text-anchor="start" fill="currentColor">
<tspan>4</tspan>
</text>
</g>
<g color="rgb(100.0000%, 100.0000%, 100.0000%)">
<g transform="translate(17.0104, 2.1023)">
<rect x="0.0888" y="-0.5900" width="0.8877" height="1.1800" ry="0.0000" fill="currentColor"/>
</g>
</g>
<g transform="translate(17.0991, 2.6923)">
<text font-family="serif" font-weight="bold" font-size="1.7461" text-anchor="start" fill="currentColor">
<tspan>2</tspan>
</text>
</g>
<g color="rgb(100.0000%, 100.0000%, 100.0000%)">
<g transform="translate(19.6849, 2.1023)">
<rect x="0.0888" y="-0.6023" width="0.8877" height="1.2047" ry="0.0000" fill="currentColor"/>
</g>
</g>
<g transform="translate(19.7737, 2.6800)">
<text font-family="serif" font-weight="bold" font-size="1.7461" text-anchor="start" fill="currentColor">
<tspan>3</tspan>
</text>
</g>
</svg>
