<svg height="500" id="doc" version="1.1" width="500" xmlns="http://www.w3.org/2000/svg"><path d="M0,0 M20,30 l7,7 l-7,7 l7,7 l7,-7 l7,7 l-7,7 l-7,-7 l-7,7 l7,7 l-7,7 l7,7 l7,-7 l7,7 l7,-7 l-7,-7 l7,-7 l7,7 l-7,7 l7,7 l7,-7 l7,7 l-7,7 l-7,-7 l-7,7 l7,7 l-7,7 l-7,-7 l7,-7 l-7,-7 l-7,7 l-7,-7 l-7,7 l7,7 l-7,7 l7,7 l7,-7 l7,7 l-7,7 l-7,-7 l-7,7 l7,7 l-7,7 l7,7 l7,-7 l7,7 l7,-7 l-7,-7 l7,-7 l7,7 l-7,7 l7,7 l7,-7 l7,7 l7,-7 l-7,-7 l7,-7 l-7,-7 l-7,7 l-7,-7 l7,-7 l7,7 l7,-7 l-7,-7 l7,-7 l7,7 l-7,7 l7,7 l7,-7 l7,7 l-7,7 l-7,-7 l-7,7 l7,7 l-7,7 l7,7 l7,-7 l7,7 l7,-7 l-7,-7 l7,-7 l7,7 l-7,7 l7,7 l7,-7 l7,7 l-7,7 l-7,-7 l-7,7 l7,7 l-7,7 l-7,-7 l7,-7 l-7,-7 l-7,7 l-7,-7 l-7,7 l7,7 l-7,7 l7,7 l7,-7 l7,7 l-7,7 l-7,-7 l-7,7 l7,7 l-7,7 l-7,-7 l7,-7 l-7,-7 l-7,7 l-7,-7 l7,-7 l7,7 l7,-7 l-7,-7 l7,-7 l-7,-7 l-7,7 l-7,-7 l-7,7 l7,7 l-7,7 l-7,-7 l7,-7 l-7,-7 l-7,7 l-7,-7 l-7,7 l7,7 l-7,7 l7,7 l7,-7 l7,7 l-7,7 l-7,-7 l-7,7 l7,7 l-7,7 l7,7 l7,-7 l7,7 l7,-7 l-7,-7 l7,-7 l7,7 l-7,7 l7,7 l7,-7 l7,7 l-7,7 l-7,-7 l-7,7 l7,7 l-7,7 l-7,-7 l7,-7 l-7,-7 l-7,7 l-7,-7 l-7,7 l7,7 l-7,7 l7,7 l7,-7 l7,7 l-7,7 l-7,-7 l-7,7 l7,7 l-7,7 l7,7 l7,-7 l7,7 l7,-7 l-7,-7 l7,-7 l7,7 l-7,7 l7,7 l7,-7 l7,7 l7,-7 l-7,-7 l7,-7 l-7,-7 l-7,7 l-7,-7 l7,-7 l7,7 l7,-7 l-7,-7 l7,-7 l7,7 l-7,7 l7,7 l7,-7 l7,7 l-7,7 l-7,-7 l-7,7 l7,7 l-7,7 l7,7 l7,-7 l7,7 l7,-7 l-7,-7 l7,-7 l7,7 l-7,7 l7,7 l7,-7 l7,7 l7,-7 l-7,-7 l7,-7 l-7,-7 l-7,7 l-7,-7 l7,-7 l7,7 l7,-7 l-7,-7 l7,-7 l-7,-7 l-7,7 l-7,-7 l-7,7 l7,7 l-7,7 l-7,-7 l7,-7 l-7,-7 l-7,7 l-7,-7 l7,-7 l7,7 l7,-7 l-7,-7 l7,-7 l7,7 l-7,7 l7,7 l7,-7 l7,7 l7,-7 l-7,-7 l7,-7 l-7,-7 l-7,7 l-7,-7 l7,-7 l7,7 l7,-7 l-7,-7 l7,-7 l7,7 l-7,7 l7,7 l7,-7 l7,7 l-7,7 l-7,-7 l-7,7 l7,7 l-7,7 l7,7 l7,-7 l7,7 l7,-7 l-7,-7 l7,-7 l7,7 l-7,7 l7,7 l7,-7 l7,7 l-7,7 l-7,-7 l-7,7 l7,7 l-7,7 l-7,-7 l7,-7 l-7,-7 l-7,7 l-7,-7 l-7,7 l7,7 l-7,7 l7,7 l7,-7 l7,7 l-7,7 l-7,-7 l-7,7 l7,7 l-7,7 l7,7 l7,-7 l7,7 l7,-7 l-7,-7 l7,-7 l7,7 l-7,7 l7,7 l7,-7 l7,7 l7,-7 l-7,-7 l7,-7 l-7,-7 l-7,7 l-7,-7 l7,-7 l7,7 l7,-7 l-7,-7 l7,-7 l7,7 l-7,7 l7,7 l7,-7 l7,7 l-7,7 l-7,-7 l-7,7 l7,7 l-7,7 l7,7 l7,-7 l7,7 l7,-7 l-7,-7 l7,-7 l7,7 l-7,7 l7,7 l7,-7 l7,7 l-7,7 l-7,-7 l-7,7 l7,7 l-7,7 l-7,-7 l7,-7 l-7,-7 l-7,7 l-7,-7 l-7,7 l7,7 l-7,7 l7,7 l7,-7 l7,7 l-7,7 l-7,-7 l-7,7 l7,7 l-7,7 l-7,-7 l7,-7 l-7,-7 l-7,7 l-7,-7 l7,-7 l7,7 l7,-7 l-7,-7 l7,-7 l-7,-7 l-7,7 l-7,-7 l-7,7 l7,7 l-7,7 l-7,-7 l7,-7 l-7,-7 l-7,7 l-7,-7 l-7,7 l7,7 l-7,7 l7,7 l7,-7 l7,7 l-7,7 l-7,-7 l-7,7 l7,7 l-7,7 l7,7 l7,-7 l7,7 l7,-7 l-7,-7 l7,-7 l7,7 l-7,7 l7,7 l7,-7 l7,7 l-7,7 l-7,-7 l-7,7 l7,7 l-7,7 l-7,-7 l7,-7 l-7,-7 l-7,7 l-7,-7 l-7,7 l7,7 l-7,7 l7,7 l7,-7 l7,7 l-7,7 l-7,-7 l-7,7 l7,7 l-7,7 l-7,-7 l7,-7 l-7,-7 l-7,7 l-7,-7 l7,-7 l7,7 l7,-7 l-7,-7 l7,-7 l-7,-7 l-7,7 l-7,-7 l-7,7 l7,7 l-7,7 l-7,-7 l7,-7 l-7,-7 l-7,7 l-7,-7 l7,-7 l7,7 l7,-7 l-7,-7 l7,-7 l7,7 l-7,7 l7,7 l7,-7 l7,7 l7,-7 l-7,-7 l7,-7 l-7,-7 l-7,7 l-7,-7 l7,-7 l7,7 l7,-7 l-7,-7 l7,-7 l-7,-7 l-7,7 l-7,-7 l-7,7 l7,7 l-7,7 l-7,-7 l7,-7 l-7,-7 l-7,7 l-7,-7 l-7,7 l7,7 l-7,7 l7,7 l7,-7 l7,7 l-7,7 l-7,-7 l-7,7 l7,7 l-7,7 l-7,-7 l7,-7 l-7,-7 l-7,7 l-7,-7 l7,-7 l7,7 l7,-7 l-7,-7 l7,-7 l-7,-7 l-7,7 l-7,-7 l-7,7 l7,7 l-7,7 l-7,-7 l7,-7 l-7,-7 l-7,7 l-7,-7 l-7,7 l7,7 l-7,7 l7,7 l7,-7 l7,7 l-7,7 l-7,-7 l-7,7 l7,7 l-7,7 l7,7 l7,-7 l7,7 l7,-7 l-7,-7 l7,-7 l7,7 l-7,7 l7,7 l7,-7 l7,7 l-7,7 l-7,-7 l-7,7 l7,7 l-7,7 l-7,-7 l7,-7 l-7,-7 l-7,7 l-7,-7 l-7,7 l7,7 l-7,7 l7,7 l7,-7 l7,7 l-7,7 l-7,-7 l-7,7 l7,7 l-7,7 l7,7 l7,-7 l7,7 l7,-7 l-7,-7 l7,-7 l7,7 l-7,7 l7,7 l7,-7 l7,7 l7,-7 l-7,-7 l7,-7 l-7,-7 l-7,7 l-7,-7 l7,-7 l7,7 l7,-7 l-7,-7 l7,-7 l7,7 l-7,7 l7,7 l7,-7 l7,7 l-7,7 l-7,-7 l-7,7 l7,7 l-7,7 l7,7 l7,-7 l7,7 l7,-7 l-7,-7 l7,-7 l7,7 l-7,7 l7,7 l7,-7 l7,7 l-7,7 l-7,-7 l-7,7 l7,7 l-7,7 l-7,-7 l7,-7 l-7,-7 l-7,7 l-7,-7 l-7,7 l7,7 l-7,7 l7,7 l7,-7 l7,7 l-7,7 l-7,-7 l-7,7 l7,7 l-7,7 l-7,-7 l7,-7 l-7,-7 l-7,7 l-7,-7 l7,-7 l7,7 l7,-7 l-7,-7 l7,-7 l-7,-7 l-7,7 l-7,-7 l-7,7 l7,7 l-7,7 l-7,-7 l7,-7 l-7,-7 l-7,7 l-7,-7 l-7,7 l7,7 l-7,7 l7,7 l7,-7 l7,7 l-7,7 l-7,-7 l-7,7 l7,7 l-7,7 l7,7 l7,-7 l7,7 l7,-7 l-7,-7 l7,-7 l7,7 l-7,7 l7,7 l7,-7 l7,7 l-7,7 l-7,-7 l-7,7 l7,7 l-7,7 l-7,-7 l7,-7 l-7,-7 l-7,7 l-7,-7 l-7,7 l7,7 l-7,7 l7,7 l7,-7 l7,7 l-7,7 l-7,-7 l-7,7 l7,7 l-7,7 l7,7 l7,-7 l7,7 l7,-7 l-7,-7 l7,-7 l7,7 l-7,7 l7,7 l7,-7 l7,7 l7,-7 l-7,-7 l7,-7 l-7,-7 l-7,7 l-7,-7 l7,-7 l7,7 l7,-7 l-7,-7 l7,-7 l7,7 l-7,7 l7,7 l7,-7 l7,7 l-7,7 l-7,-7 l-7,7 l7,7 l-7,7 l7,7 l7,-7 l7,7 l7,-7 l-7,-7 l7,-7 l7,7 l-7,7 l7,7 l7,-7 l7,7 l7,-7 l-7,-7 l7,-7 l-7,-7 l-7,7 l-7,-7 l7,-7 l7,7 l7,-7 l-7,-7 l7,-7 l-7,-7 l-7,7 l-7,-7 l-7,7 l7,7 l-7,7 l-7,-7 l7,-7 l-7,-7 l-7,7 l-7,-7 l7,-7 l7,7 l7,-7 l-7,-7 l7,-7 l7,7 l-7,7 l7,7 l7,-7 l7,7 l7,-7 l-7,-7 l7,-7 l-7,-7 l-7,7 l-7,-7 l7,-7 l7,7 l7,-7 l-7,-7 l7,-7 l7,7 l-7,7 l7,7 l7,-7 l7,7 l-7,7 l-7,-7 l-7,7 l7,7 l-7,7 l7,7 l7,-7 l7,7 l7,-7 l-7,-7 l7,-7 l7,7 l-7,7 l7,7 l7,-7 l7,7 l-7,7 l-7,-7 l-7,7 l7,7 l-7,7 l-7,-7 l7,-7 l-7,-7 l-7,7 l-7,-7 l-7,7 l7,7 l-7,7 l7,7 l7,-7 l7,7 l-7,7 l-7,-7 l-7,7 l7,7 l-7,7 l7,7 l7,-7 l7,7 l7,-7 l-7,-7 l7,-7 l7,7 l-7,7 l7,7 l7,-7 l7,7 l7,-7 l-7,-7 l7,-7 l-7,-7 l-7,7 l-7,-7 l7,-7 l7,7 l7,-7 l-7,-7 l7,-7 l7,7 l-7,7 l7,7 l7,-7 l7,7 l-7,7 l-7,-7 l-7,7 l7,7 l-7,7 l7,7 l7,-7 l7,7 l7,-7 l-7,-7 l7,-7 l7,7 l-7,7 l7,7 l7,-7 l7,7 l7,-7 l-7,-7 l7,-7 l-7,-7 l-7,7 l-7,-7 l7,-7 l7,7 l7,-7 l-7,-7 l7,-7 l-7,-7 l-7,7 l-7,-7 l-7,7 l7,7 l-7,7 l-7,-7 l7,-7 l-7,-7 l-7,7 l-7,-7 l7,-7 l7,7 l7,-7 l-7,-7 l7,-7 l7,7 l-7,7 l7,7 l7,-7 l7,7 l7,-7 l-7,-7 l7,-7 l-7,-7 l-7,7 l-7,-7 l7,-7 l7,7 l7,-7 l-7,-7 l7,-7 l-7,-7 l-7,7 l-7,-7 l-7,7 l7,7 l-7,7 l-7,-7 l7,-7 l-7,-7 l-7,7 l-7,-7 l-7,7 l7,7 l-7,7 l7,7 l7,-7 l7,7 l-7,7 l-7,-7 l-7,7 l7,7 l-7,7 l-7,-7 l7,-7 l-7,-7 l-7,7 l-7,-7 l7,-7 l7,7 l7,-7 l-7,-7 l7,-7 l-7,-7 l-7,7 l-7,-7 l-7,7 l7,7 l-7,7 l-7,-7 l7,-7 l-7,-7 l-7,7 l-7,-7 l7,-7 l7,7 l7,-7 l-7,-7 l7,-7 l7,7 l-7,7 l7,7 l7,-7 l7,7 l7,-7 l-7,-7 l7,-7 l-7,-7 l-7,7 l-7,-7 l7,-7 l7,7 l7,-7 l-7,-7 l7,-7 l7,7 l-7,7 l7,7 l7,-7 l7,7 l-7,7 l-7,-7 l-7,7 l7,7 l-7,7 l7,7 l7,-7 l7,7 l7,-7 l-7,-7 l7,-7 l7,7 l-7,7 l7,7 l7,-7 l7,7 l7,-7 l-7,-7 l7,-7 l-7,-7 l-7,7 l-7,-7 l7,-7 l7,7 l7,-7 l-7,-7 l7,-7 l-7,-7 l-7,7 l-7,-7 l-7,7 l7,7 l-7,7 l-7,-7 l7,-7 l-7,-7 l-7,7 l-7,-7 l7,-7 l7,7 l7,-7 l-7,-7 l7,-7 l7,7 l-7,7 l7,7 l7,-7 l7,7 l7,-7 l-7,-7 l7,-7 l-7,-7 l-7,7 l-7,-7 l7,-7 l7,7 l7,-7 l-7,-7 l7,-7 l7,7 l-7,7 l7,7 l7,-7 l7,7 l-7,7 l-7,-7 l-7,7 l7,7 l-7,7 l7,7 l7,-7 l7,7 l7,-7 l-7,-7 l7,-7 l7,7 l-7,7 l7,7 l7,-7 l7,7 l-7,7 l-7,-7 l-7,7 l7,7 l-7,7 l-7,-7 l7,-7 l-7,-7 l-7,7 l-7,-7 l-7,7 l7,7 l-7,7 l7,7 l7,-7 l7,7 l-7,7 l-7,-7 l-7,7 l7,7 l-7,7 l7,7 l7,-7 l7,7 l7,-7 l-7,-7 l7,-7 l7,7 l-7,7 l7,7 l7,-7 l7,7 l7,-7 l-7,-7 l7,-7 l-7,-7 l-7,7 l-7,-7 l7,-7 l7,7 l7,-7 l-7,-7 l7,-7 l7,7 l-7,7 l7,7 l7,-7 l7,7 l-7,7 l-7,-7 l-7,7 l7,7 l-7,7 l7,7 l7,-7 l7,7 l7,-7 l-7,-7 l7,-7 l7,7 l-7,7 l7,7 l7,-7 l7,7 l-7,7 l-7,-7 l-7,7 l7,7 l-7,7 l-7,-7 l7,-7 l-7,-7 l-7,7 l-7,-7 l-7,7 l7,7 l-7,7 l7,7 l7,-7 l7,7 l-7,7 l-7,-7 l-7,7 l7,7 l-7,7 l-7,-7 l7,-7 l-7,-7 l-7,7 l-7,-7 l7,-7 l7,7 l7,-7 l-7,-7 l7,-7 l-7,-7 l-7,7 l-7,-7 l-7,7 l7,7 l-7,7 l-7,-7 l7,-7 l-7,-7 l-7,7 l-7,-7 l-7,7 l7,7 l-7,7 l7,7 l7,-7 l7,7 l-7,7 l-7,-7 l-7,7 l7,7 l-7,7 l7,7 l7,-7 l7,7 l7,-7 l-7,-7 l7,-7 l7,7 l-7,7 l7,7 l7,-7 l7,7 l-7,7 l-7,-7 l-7,7 l7,7 l-7,7 l-7,-7 l7,-7 l-7,-7 l-7,7 l-7,-7 l-7,7 l7,7 l-7,7 l7,7 l7,-7 l7,7 l-7,7 l-7,-7 l-7,7 l7,7 l-7,7 l7,7 l7,-7 l7,7 l7,-7 l-7,-7 l7,-7 l7,7 l-7,7 l7,7 l7,-7 l7,7 l7,-7 l-7,-7 l7,-7 l-7,-7 l-7,7 l-7,-7 l7,-7 l7,7 l7,-7 l-7,-7 l7,-7 l7,7 l-7,7 l7,7 l7,-7 l7,7 l-7,7 l-7,-7 l-7,7 l7,7 l-7,7 l7,7 l7,-7 l7,7 l7,-7 l-7,-7 l7,-7 l7,7 l-7,7 l7,7 l7,-7 l7,7 l7,-7 l-7,-7 l7,-7 l-7,-7 l-7,7 l-7,-7 l7,-7 l7,7 l7,-7 l-7,-7 l7,-7 l-7,-7 l-7,7 l-7,-7 l-7,7 l7,7 l-7,7 l-7,-7 l7,-7 l-7,-7 l-7,7 l-7,-7 l7,-7 l7,7 l7,-7 l-7,-7 l7,-7 l7,7 l-7,7 l7,7 l7,-7 l7,7 l7,-7 l-7,-7 l7,-7 l-7,-7 l-7,7 l-7,-7 l7,-7 l7,7 l7,-7 l-7,-7 l7,-7 l7,7 l-7,7 l7,7 l7,-7 l7,7 l-7,7 l-7,-7 l-7,7 l7,7 l-7,7 l7,7 l7,-7 l7,7 l7,-7 l-7,-7 l7,-7 l7,7 l-7,7 l7,7 l7,-7 l7,7 l-7,7 l-7,-7 l-7,7 l7,7 l-7,7 l-7,-7 l7,-7 l-7,-7 l-7,7 l-7,-7 l-7,7 l7,7 l-7,7 l7,7 l7,-7 l7,7 l-7,7 l-7,-7 l-7,7 l7,7 l-7,7 l7,7 l7,-7 l7,7 l7,-7 l-7,-7 l7,-7 l7,7 l-7,7 l7,7 l7,-7 l7,7 l7,-7 l-7,-7 l7,-7 l-7,-7 l-7,7 l-7,-7 l7,-7 l7,7 l7,-7 l-7,-7 l7,-7 l7,7 l-7,7 l7,7 l7,-7 l7,7 l-7,7 l-7,-7 l-7,7 l7,7 l-7,7 l7,7 l7,-7 l7,7 l7,-7 l-7,-7 l7,-7 l7,7 l-7,7 l7,7 l7,-7 l7,7 l7,-7 l-7,-7 l7,-7 l-7,-7 l-7,7 l-7,-7 l7,-7 l7,7 l7,-7 l-7,-7 l7,-7 l-7,-7 l-7,7 l-7,-7 l-7,7 l7,7 l-7,7 l-7,-7 l7,-7 l-7,-7 l-7,7 l-7,-7 l7,-7 l7,7 l7,-7 l-7,-7 l7,-7 l7,7 l-7,7 l7,7 l7,-7 l7,7 l7,-7 l-7,-7 l7,-7 l-7,-7 l-7,7 l-7,-7 l7,-7 l7,7 l7,-7 l-7,-7 l7,-7 l-7,-7 l-7,7 l-7,-7 l-7,7 l7,7 l-7,7 l-7,-7 l7,-7 l-7,-7 l-7,7 l-7,-7 l-7,7 l7,7 l-7,7 l7,7 l7,-7 l7,7 l-7,7 l-7,-7 l-7,7 l7,7 l-7,7 l-7,-7 l7,-7 l-7,-7 l-7,7 l-7,-7 l7,-7 l7,7 l7,-7 l-7,-7 l7,-7 l-7,-7 l-7,7 l-7,-7 l-7,7 l7,7 l-7,7 l-7,-7 l7,-7 l-7,-7 l-7,7 l-7,-7 l7,-7 l7,7 l7,-7 l-7,-7 l7,-7 l7,7 l-7,7 l7,7 l7,-7 l7,7 l7,-7 l-7,-7 l7,-7 l-7,-7 l-7,7 l-7,-7 l7,-7 l7,7 l7,-7 l-7,-7 l7,-7 l7,7 l-7,7 l7,7 l7,-7 l7,7 l-7,7 l-7,-7 l-7,7 l7,7 l-7,7 l7,7 l7,-7 l7,7 l7,-7 l-7,-7 l7,-7 l7,7 l-7,7 l7,7 l7,-7 l7,7 l7,-7 l-7,-7 l7,-7 l-7,-7 l-7,7 l-7,-7 l7,-7 l7,7 l7,-7 l-7,-7 l7,-7 l-7,-7 l-7,7 l-7,-7 l-7,7 l7,7 l-7,7 l-7,-7 l7,-7 l-7,-7 l-7,7 l-7,-7 l7,-7 l7,7 l7,-7 l-7,-7 l7,-7 l7,7 l-7,7 l7,7 l7,-7 l7,7 l7,-7 l-7,-7 l7,-7 l-7,-7 l-7,7 l-7,-7 l7,-7 l7,7 l7,-7 l-7,-7 l7,-7 l-7,-7 l-7,7 l-7,-7 l-7,7 l7,7 l-7,7 l-7,-7 l7,-7 l-7,-7 l-7,7 l-7,-7 l-7,7 l7,7 l-7,7 l7,7 l7,-7 l7,7 l-7,7 l-7,-7 l-7,7 l7,7 l-7,7 l-7,-7 l7,-7 l-7,-7 l-7,7 l-7,-7 l7,-7 l7,7 l7,-7 l-7,-7 l7,-7 l-7,-7 l-7,7 l-7,-7 l-7,7 l7,7 l-7,7 l-7,-7 l7,-7 l-7,-7 l-7,7 l-7,-7 l-7,7 l7,7 l-7,7 l7,7 l7,-7 l7,7 l-7,7 l-7,-7 l-7,7 l7,7 l-7,7 l7,7 l7,-7 l7,7 l7,-7 l-7,-7 l7,-7 l7,7 l-7,7 l7,7 l7,-7 l7,7 l-7,7 l-7,-7 l-7,7 l7,7 l-7,7 l-7,-7 l7,-7 l-7,-7 l-7,7 l-7,-7 l-7,7 l7,7 l-7,7 l7,7 l7,-7 l7,7 l-7,7 l-7,-7 l-7,7 l7,7 l-7,7 l-7,-7 l7,-7 l-7,-7 l-7,7 l-7,-7 l7,-7 l7,7 l7,-7 l-7,-7 l7,-7 l-7,-7 l-7,7 l-7,-7 l-7,7 l7,7 l-7,7 l-7,-7 l7,-7 l-7,-7 l-7,7 l-7,-7 l7,-7 l7,7 l7,-7 l-7,-7 l7,-7 l7,7 l-7,7 l7,7 l7,-7 l7,7 l7,-7 l-7,-7 l7,-7 l-7,-7 l-7,7 l-7,-7 l7,-7 l7,7 l7,-7 l-7,-7 l7,-7 l-7,-7 l-7,7 l-7,-7 l-7,7 l7,7 l-7,7 l-7,-7 l7,-7 l-7,-7 l-7,7 l-7,-7 l-7,7 l7,7 l-7,7 l7,7 l7,-7 l7,7 l-7,7 l-7,-7 l-7,7 l7,7 l-7,7 l-7,-7 l7,-7 l-7,-7 l-7,7 l-7,-7 l7,-7 l7,7 l7,-7 l-7,-7 l7,-7 l-7,-7 l-7,7 l-7,-7 l-7,7 l7,7 l-7,7 l-7,-7 l7,-7 l-7,-7 l-7,7 l-7,-7 l7,-7 l7,7 l7,-7 l-7,-7 l7,-7 l7,7 l-7,7 l7,7 l7,-7 l7,7 l7,-7 l-7,-7 l7,-7 l-7,-7 l-7,7 l-7,-7 l7,-7 l7,7 l7,-7 l-7,-7 l7,-7 l7,7 l-7,7 l7,7 l7,-7 l7,7 l-7,7 l-7,-7 l-7,7 l7,7 l-7,7 l7,7 l7,-7 l7,7 l7,-7 l-7,-7 l7,-7 l7,7 l-7,7 l7,7 l7,-7 l7,7 l7,-7 l-7,-7 l7,-7 l-7,-7 l-7,7 l-7,-7 l7,-7 l7,7 l7,-7 l-7,-7 l7,-7 l-7,-7 l-7,7 l-7,-7 l-7,7 l7,7 l-7,7 l-7,-7 l7,-7 l-7,-7 l-7,7 l-7,-7 l7,-7 l7,7 l7,-7 l-7,-7 l7,-7 l7,7 l-7,7 l7,7 l7,-7 l7,7 l7,-7 l-7,-7 l7,-7 l-7,-7 l-7,7 l-7,-7 l7,-7 l7,7 l7,-7 l-7,-7 l7,-7 l7,7 l-7,7 l7,7 l7,-7 l7,7 l-7,7 l-7,-7 l-7,7 l7,7 l-7,7 l7,7 l7,-7 l7,7 l7,-7 l-7,-7 l7,-7 l7,7 l-7,7 l7,7 l7,-7 l7,7 l-7,7 l-7,-7 l-7,7 l7,7 l-7,7 l-7,-7 l7,-7 l-7,-7 l-7,7 l-7,-7 l-7,7 l7,7 l-7,7 l7,7 l7,-7 l7,7 l-7,7 l-7,-7 l-7,7 l7,7 l-7,7 l7,7 l7,-7 l7,7 l7,-7 l-7,-7 l7,-7 l7,7 l-7,7 l7,7 l7,-7 l7,7 l7,-7 l-7,-7 l7,-7 l-7,-7 l-7,7 l-7,-7 l7,-7 l7,7 l7,-7 l-7,-7 l7,-7 l7,7 l-7,7 l7,7 l7,-7 l7,7 l-7,7 l-7,-7 l-7,7 l7,7 l-7,7 l7,7 l7,-7 l7,7 l7,-7 l-7,-7 l7,-7 l7,7 l-7,7 l7,7 l7,-7 l7,7 l7,-7 l-7,-7 l7,-7 l-7,-7 l-7,7 l-7,-7 l7,-7 l7,7 l7,-7 l-7,-7 l7,-7 l-7,-7 l-7,7 l-7,-7 l-7,7 l7,7 l-7,7 l-7,-7 l7,-7 l-7,-7 l-7,7 l-7,-7 l7,-7 l7,7 l7,-7 l-7,-7 l7,-7 l7,7 l-7,7 l7,7 l7,-7 l7,7 l7,-7 l-7,-7 l7,-7 l-7,-7 l-7,7 l-7,-7 l7,-7 l7,7 l7,-7 l-7,-7 l7,-7 l-7,-7 l-7,7 l-7,-7 l-7,7 l7,7 l-7,7 l-7,-7 l7,-7 l-7,-7 l-7,7 l-7,-7 l-7,7 l7,7 l-7,7 l7,7 l7,-7 l7,7 l-7,7 l-7,-7 l-7,7 l7,7 l-7,7 l-7,-7 l7,-7 l-7,-7 l-7,7 l-7,-7 l7,-7 l7,7 l7,-7 l-7,-7 l7,-7 l-7,-7 l-7,7 l-7,-7 l-7,7 l7,7 l-7,7 l-7,-7 l7,-7 l-7,-7 l-7,7 l-7,-7 l7,-7 l7,7 l7,-7 l-7,-7 l7,-7 l7,7 l-7,7 l7,7 l7,-7 l7,7 l7,-7 l-7,-7 l7,-7 l-7,-7 l-7,7 l-7,-7 l7,-7 l7,7 l7,-7 l-7,-7 l7,-7 l7,7 l-7,7 l7,7 l7,-7 l7,7 l-7,7 l-7,-7 l-7,7 l7,7 l-7,7 l7,7 l7,-7 l7,7 l7,-7 l-7,-7 l7,-7 l7,7 l-7,7 l7,7 l7,-7 l7,7 l7,-7 l-7,-7 l7,-7 l-7,-7 l-7,7 l-7,-7 l7,-7 l7,7 l7,-7 l-7,-7 l7,-7 l-7,-7 l-7,7 l-7,-7 l-7,7 l7,7 l-7,7 l-7,-7 l7,-7 l-7,-7 l-7,7 l-7,-7 l7,-7 l7,7 l7,-7 l-7,-7 l7,-7 l7,7 l-7,7 l7,7 l7,-7 l7,7 l7,-7 l-7,-7 l7,-7 l-7,-7 l-7,7 l-7,-7 l7,-7 l7,7 l7,-7 l-7,-7 l7,-7 l-7,-7 l-7,7 l-7,-7 l-7,7 l7,7 l-7,7 l-7,-7 l7,-7 l-7,-7 l-7,7 l-7,-7 l-7,7 l7,7 l-7,7 l7,7 l7,-7 l7,7 l-7,7 l-7,-7 l-7,7 l7,7 l-7,7 l-7,-7 l7,-7 l-7,-7 l-7,7 l-7,-7 l7,-7 l7,7 l7,-7 l-7,-7 l7,-7 l-7,-7 l-7,7 l-7,-7 l-7,7 l7,7 l-7,7 l-7,-7 l7,-7 l-7,-7 l-7,7 l-7,-7 l-7,7 l7,7 l-7,7 l7,7 l7,-7 l7,7 l-7,7 l-7,-7 l-7,7 l7,7 l-7,7 l7,7 l7,-7 l7,7 l7,-7 l-7,-7 l7,-7 l7,7 l-7,7 l7,7 l7,-7 l7,7 l-7,7 l-7,-7 l-7,7 l7,7 l-7,7 l-7,-7 l7,-7 l-7,-7 l-7,7 l-7,-7 l-7,7 l7,7 l-7,7 l7,7 l7,-7 l7,7 l-7,7 l-7,-7 l-7,7 l7,7 l-7,7 l-7,-7 l7,-7 l-7,-7 l-7,7 l-7,-7 l7,-7 l7,7 l7,-7 l-7,-7 l7,-7 l-7,-7 l-7,7 l-7,-7 l-7,7 l7,7 l-7,7 l-7,-7 l7,-7 l-7,-7 l-7,7 l-7,-7 l7,-7 l7,7 l7,-7 l-7,-7 l7,-7 l7,7 l-7,7 l7,7 l7,-7 l7,7 l7,-7 l-7,-7 l7,-7 l-7,-7 l-7,7 l-7,-7 l7,-7 l7,7 l7,-7 l-7,-7 l7,-7 l-7,-7 l-7,7 l-7,-7 l-7,7 l7,7 l-7,7 l-7,-7 l7,-7 l-7,-7 l-7,7 l-7,-7 l-7,7 l7,7 l-7,7 l7,7 l7,-7 l7,7 l-7,7 l-7,-7 l-7,7 l7,7 l-7,7 l-7,-7 l7,-7 l-7,-7 l-7,7 l-7,-7 l7,-7 l7,7 l7,-7 l-7,-7 l7,-7 l-7,-7 l-7,7 l-7,-7 l-7,7 l7,7 l-7,7 l-7,-7 l7,-7 l-7,-7 l-7,7 l-7,-7 l-7,7 l7,7 l-7,7 l7,7 l7,-7 l7,7 l-7,7 l-7,-7 l-7,7 l7,7 l-7,7 l7,7 l7,-7 l7,7 l7,-7 l-7,-7 l7,-7 l7,7 l-7,7 l7,7 l7,-7 l7,7 l-7,7 l-7,-7 l-7,7 l7,7 l-7,7 l-7,-7 l7,-7 l-7,-7 l-7,7 l-7,-7 l-7,7 l7,7 l-7,7 l7,7 l7,-7 l7,7 l-7,7 l-7,-7 l-7,7 l7,7 l-7,7 l7,7 l7,-7 l7,7 l7,-7 l-7,-7 l7,-7 l7,7 l-7,7 l7,7 l7,-7 l7,7 l7,-7 l-7,-7 l7,-7 l-7,-7 l-7,7 l-7,-7 l7,-7 l7,7 l7,-7 l-7,-7 l7,-7 l7,7 l-7,7 l7,7 l7,-7 l7,7 l-7,7 l-7,-7 l-7,7 l7,7 l-7,7 l7,7 l7,-7 l7,7 l7,-7 l-7,-7 l7,-7 l7,7 l-7,7 l7,7 l7,-7 l7,7 l-7,7 l-7,-7 l-7,7 l7,7 l-7,7 l-7,-7 l7,-7 l-7,-7 l-7,7 l-7,-7 l-7,7 l7,7 l-7,7 l7,7 l7,-7 l7,7 l-7,7 l-7,-7 l-7,7 l7,7 l-7,7 l-7,-7 l7,-7 l-7,-7 l-7,7 l-7,-7 l7,-7 l7,7 l7,-7 l-7,-7 l7,-7 l-7,-7 l-7,7 l-7,-7 l-7,7 l7,7 l-7,7 l-7,-7 l7,-7 l-7,-7 l-7,7 l-7,-7 l-7,7 l7,7 l-7,7 l7,7 l7,-7 l7,7 l-7,7 l-7,-7 l-7,7 l7,7 l-7,7 l7,7 l7,-7 l7,7 l7,-7 l-7,-7 l7,-7 l7,7 l-7,7 l7,7 l7,-7 l7,7 l-7,7 l-7,-7 l-7,7 l7,7 l-7,7 l-7,-7 l7,-7 l-7,-7 l-7,7 l-7,-7 l-7,7 l7,7 l-7,7 l7,7 l7,-7 l7,7 l-7,7 l-7,-7 l-7,7 l7,7 l-7,7 l-7,-7 l7,-7 l-7,-7 l-7,7 l-7,-7 l7,-7 l7,7 l7,-7 l-7,-7 l7,-7 l-7,-7 l-7,7 l-7,-7 l-7,7 l7,7 l-7,7 l-7,-7 l7,-7 l-7,-7 l-7,7 l-7,-7 l7,-7 l7,7 l7,-7 l-7,-7 l7,-7 l7,7 l-7,7 l7,7 l7,-7 l7,7 l7,-7 l-7,-7 l7,-7 l-7,-7 l-7,7 l-7,-7 l7,-7 l7,7 l7,-7 l-7,-7 l7,-7 l-7,-7 l-7,7 l-7,-7 l-7,7 l7,7 l-7,7 l-7,-7 l7,-7 l-7,-7 l-7,7 l-7,-7 l-7,7 l7,7 l-7,7 l7,7 l7,-7 l7,7 l-7,7 l-7,-7 l-7,7 l7,7 l-7,7 l-7,-7 l7,-7 l-7,-7 l-7,7 l-7,-7 l7,-7 l7,7 l7,-7 l-7,-7 l7,-7 l-7,-7 l-7,7 l-7,-7 l-7,7 l7,7 l-7,7 l-7,-7 l7,-7 l-7,-7 l-7,7 l-7,-7 l7,-7 l7,7 l7,-7 l-7,-7 l7,-7 l7,7 l-7,7 l7,7 l7,-7 l7,7 l7,-7 l-7,-7 l7,-7 l-7,-7 l-7,7 l-7,-7 l7,-7 l7,7 l7,-7 l-7,-7 l7,-7 l7,7 l-7,7 l7,7 l7,-7 l7,7 l-7,7 l-7,-7 l-7,7 l7,7 l-7,7 l7,7 l7,-7 l7,7 l7,-7 l-7,-7 l7,-7 l7,7 l-7,7 l7,7 l7,-7 l7,7 l7,-7 l-7,-7 l7,-7 l-7,-7 l-7,7 l-7,-7 l7,-7 l7,7 l7,-7 l-7,-7 l7,-7 l-7,-7 l-7,7 l-7,-7 l-7,7 l7,7 l-7,7 l-7,-7 l7,-7 l-7,-7 l-7,7 l-7,-7 l7,-7 l7,7 l7,-7 l-7,-7 l7,-7 l7,7 l-7,7 l7,7 l7,-7 l7,7 l7,-7 l-7,-7 l7,-7 l-7,-7 l-7,7 l-7,-7 l7,-7 l7,7 l7,-7 l-7,-7 l7,-7 l-7,-7 l-7,7 l-7,-7 l-7,7 l7,7 l-7,7 l-7,-7 l7,-7 l-7,-7 l-7,7 l-7,-7 l-7,7 l7,7 l-7,7 l7,7 l7,-7 l7,7 l-7,7 l-7,-7 l-7,7 l7,7 l-7,7 l-7,-7 l7,-7 l-7,-7 l-7,7 l-7,-7 l7,-7 l7,7 l7,-7 l-7,-7 l7,-7 l-7,-7 l-7,7 l-7,-7 l-7,7 l7,7 l-7,7 l-7,-7 l7,-7 l-7,-7 l-7,7 l-7,-7 l-7,7 l7,7 l-7,7 l7,7 l7,-7 l7,7 l-7,7 l-7,-7 l-7,7 l7,7 l-7,7 l7,7 l7,-7 l7,7 l7,-7 l-7,-7 l7,-7 l7,7 l-7,7 l7,7 l7,-7 l7,7 l-7,7 l-7,-7 l-7,7 l7,7 l-7,7 l-7,-7 l7,-7 l-7,-7 l-7,7 l-7,-7 l-7,7 l7,7 l-7,7 l7,7 l7,-7 l7,7 l-7,7 l-7,-7 l-7,7 l7,7 l-7,7 l-7,-7 l7,-7 l-7,-7 l-7,7 l-7,-7 l7,-7 l7,7 l7,-7 l-7,-7 l7,-7 l-7,-7 l-7,7 l-7,-7 l-7,7 l7,7 l-7,7 l-7,-7 l7,-7 l-7,-7 l-7,7 l-7,-7 l7,-7 l7,7 l7,-7 l-7,-7 l7,-7 l7,7 l-7,7 l7,7 l7,-7 l7,7 l7,-7 l-7,-7 l7,-7 l-7,-7 l-7,7 l-7,-7 l7,-7 l7,7 l7,-7 l-7,-7 l7,-7 l-7,-7 l-7,7 l-7,-7 l-7,7 l7,7 l-7,7 l-7,-7 l7,-7 l-7,-7 l-7,7 l-7,-7 l-7,7 l7,7 l-7,7 l7,7 l7,-7 l7,7 l-7,7 l-7,-7 l-7,7 l7,7 l-7,7 l-7,-7 l7,-7 l-7,-7 l-7,7 l-7,-7 l7,-7 l7,7 l7,-7 l-7,-7 l7,-7 l-7,-7 l-7,7 l-7,-7 l-7,7 l7,7 l-7,7 l-7,-7 l7,-7 l-7,-7 l-7,7 l-7,-7 " fill="none" stroke="green" vector-effect="non-scaling-stroke"/></svg>